<svg xmlns="http://www.w3.org/2000/svg" width="16" height="16" viewBox="0 0 16 16">
    <defs id="colors">
        <linearGradient id="fileIconBackground" fallback="fallback.inspectorBackground"
                        opacity="fileIconOpacity" opacity-fallback="#80">
            <stop offset="0" stop-color="#9AA7B0" stop-opacity=".8"/>
            <stop offset="1" stop-color="#9AA7B0" stop-opacity=".8"/>
        </linearGradient>
    </defs>
    <path fill="url(#fileIconBackground)" fill-rule="evenodd"
          d="M2,3 L4,3 L4,5 L2,5 L2,3 Z M2,7 L4,7 L4,9 L2,9 L2,7 Z M2,11 L4,11 L4,13 L2,13 L2,11 Z M6,3 L15,3 L15,5 L6,5 L6,3 Z M6,7 L15,7 L15,9 L6,9 L6,7 Z M6,11 L15,11 L15,13 L6,13 L6,11 Z"/>
</svg>
