<svg xmlns="http://www.w3.org/2000/svg" width="16" height="16" viewBox="0 0 16 16">
    <defs id="colors">
        <linearGradient id="fileIconBackground" fallback="fallback.inspectorBackground"
                        opacity="fileIconOpacity" opacity-fallback="%80">
            <stop offset="0" stop-color="#9AA7B0" stop-opacity=".8"/>
            <stop offset="1" stop-color="#9AA7B0" stop-opacity=".8"/>
        </linearGradient>
    </defs>
    <path fill="url(#fileIconBackground)" fill-rule="evenodd"
          d="M5,7 L5,5 L2,5 L2,13 L5,13 L5,11 L2,11 L2,10 L5,10 L5,8 L2,8 L2,7 L5,7 Z M6,7 L10,7 L10,5 L6,5 L6,7 Z M11,7 L14,7 L14,5 L11,5 L11,7 Z M14,8 L11,8 L11,10 L14,10 L14,8 Z M10,8 L6,8 L6,10 L10,10 L10,8 Z M14,11 L11,11 L11,13 L14,13 L14,11 Z M10,11 L6,11 L6,13 L10,13 L10,11 Z M1,14 L1,2 L15,2 L15,14 L1,14 Z"/>
</svg>
