<svg xmlns="http://www.w3.org/2000/svg" width="16" height="16" viewBox="0 0 16 16">
    <defs id="colors">
        <linearGradient id="fileIconBackground" fallback="fallback.inspectorBackground"
                        opacity="fileIconOpacity" opacity-fallback="#80">
            <stop offset="0" stop-color="#9AA7B0" stop-opacity=".8"/>
            <stop offset="1" stop-color="#9AA7B0" stop-opacity=".8"/>
        </linearGradient>
        <linearGradient id="fileIconForeground" fallback="fallback.inspectorForeground"
                        opacity="fileIconOpacity" opacity-fallback="#80">
            <stop offset="0" stop-color="#231F20" stop-opacity=".8"/>
            <stop offset="0" stop-color="#231F20" stop-opacity=".8"/>
        </linearGradient>
    </defs>
    <g fill="none" fill-rule="evenodd">
        <path fill="url(#fileIconBackground)"
              d="M9,3 L9,4 L2,4 L2,12 L9,12 L9,13 L1,13 L1,3 L9,3 Z M12,3 L15,3 L15,13 L12,13 L12,12 L14,12 L14,4 L12,4 L12,3 Z M6,6 L6,11 L5,11 L5,6 L3,6 L3,5 L8,5 L8,6 L6,6 Z"/>
        <path fill="url(#fileIconForeground)"
              d="M8,1 L10,1 L10,2 L8,2 L8,1 Z M11,1 L13,1 L13,2 L11,2 L11,1 Z M10,2 L11,2 L11,14 L10,14 L10,2 Z M8,14 L10,14 L10,15 L8,15 L8,14 Z M11,14 L13,14 L13,15 L11,15 L11,14 Z"/>
    </g>
</svg>
